<svg xmlns="http://www.w3.org/2000/svg" width="24.351" height="24.351" viewBox="0 0 24.351 24.351"><defs><style>.a{fill:none;}.b{fill:#999;}</style></defs><path class="a" d="M0,0H24.351V24.351H0Z"/><path class="b" d="M18.936,12.69A7.946,7.946,0,0,0,19,11.74a6,6,0,0,0-.073-.95l2.058-1.607a.5.5,0,0,0,.122-.621L19.155,5.19a.5.5,0,0,0-.6-.219l-2.423.974A7.133,7.133,0,0,0,14.492,5l-.365-2.581A.486.486,0,0,0,13.64,2h-3.9a.474.474,0,0,0-.475.414L8.9,5a7.324,7.324,0,0,0-1.644.95L4.837,4.971a.481.481,0,0,0-.6.219L2.293,8.562a.472.472,0,0,0,.122.621l2.058,1.607a5.738,5.738,0,0,0-.012,1.9L2.4,14.3a.5.5,0,0,0-.122.621l1.948,3.373a.5.5,0,0,0,.6.219l2.423-.974a7.133,7.133,0,0,0,1.644.95l.365,2.581a.5.5,0,0,0,.487.414h3.9a.465.465,0,0,0,.475-.414l.365-2.581a7.324,7.324,0,0,0,1.644-.95l2.423.974a.481.481,0,0,0,.6-.219l1.948-3.373a.472.472,0,0,0-.122-.621L18.936,12.69Zm-7.244,2.7a3.653,3.653,0,1,1,3.653-3.653A3.663,3.663,0,0,1,11.692,15.393Z" transform="translate(0.483 0.435)"/></svg>