<svg xmlns="http://www.w3.org/2000/svg" width="30.611" height="30.611" viewBox="0 0 30.611 30.611"><defs><style>.a{fill:none;}.b{fill:#fff;}</style></defs><g transform="translate(0 0)"><path class="a" d="M0,0H30.611V30.611H0Z"/><path class="b" d="M20.856,11.74V7.275A1.279,1.279,0,0,0,19.581,6H4.275A1.279,1.279,0,0,0,3,7.275V20.03a1.279,1.279,0,0,0,1.275,1.275H19.581a1.279,1.279,0,0,0,1.275-1.275V15.566l5.1,5.1V6.638ZM17.03,14.928H13.2v3.826H10.653V14.928H6.826V12.377h3.826V8.551H13.2v3.826H17.03Z" transform="translate(0.826 1.653)"/></g></svg>