<svg xmlns="http://www.w3.org/2000/svg" width="30.611" height="30.611" viewBox="0 0 30.611 30.611"><defs><style>.a{fill:none;}.b{fill:#fff;}</style></defs><g transform="translate(0 0)"><path class="a" d="M0,0H30.611V30.611H0Z"/><path class="b" d="M24.7,18.79a14.6,14.6,0,0,1-4.5-.714,1.247,1.247,0,0,0-1.288.306l-2,2.513a19.366,19.366,0,0,1-8.788-8.711L10.6,10.066a1.3,1.3,0,0,0,.306-1.3,14.225,14.225,0,0,1-.714-4.5A1.274,1.274,0,0,0,8.931,3H4.518C3.829,3,3,3.306,3,4.263a21.877,21.877,0,0,0,21.7,21.7,1.338,1.338,0,0,0,1.263-1.505v-4.4A1.274,1.274,0,0,0,24.7,18.79Z" transform="translate(0.826 0.826)"/></g></svg>