<svg xmlns="http://www.w3.org/2000/svg" width="272" height="20" viewBox="0 0 272 20"><defs><style>.a{fill:#c4c4c4;}</style></defs><g transform="translate(-230 -1660)"><circle class="a" cx="1" cy="1" r="1" transform="translate(230 1660)"/><circle class="a" cx="1" cy="1" r="1" transform="translate(266 1660)"/><circle class="a" cx="1" cy="1" r="1" transform="translate(236 1660)"/><circle class="a" cx="1" cy="1" r="1" transform="translate(272 1660)"/><circle class="a" cx="1" cy="1" r="1" transform="translate(302 1660)"/><circle class="a" cx="1" cy="1" r="1" transform="translate(242 1660)"/><circle class="a" cx="1" cy="1" r="1" transform="translate(278 1660)"/><circle class="a" cx="1" cy="1" r="1" transform="translate(308 1660)"/><circle class="a" cx="1" cy="1" r="1" transform="translate(248 1660)"/><circle class="a" cx="1" cy="1" r="1" transform="translate(284 1660)"/><circle class="a" cx="1" cy="1" r="1" transform="translate(314 1660)"/><circle class="a" cx="1" cy="1" r="1" transform="translate(332 1660)"/><circle class="a" cx="1" cy="1" r="1" transform="translate(350 1660)"/><circle class="a" cx="1" cy="1" r="1" transform="translate(254 1660)"/><circle class="a" cx="1" cy="1" r="1" transform="translate(290 1660)"/><circle class="a" cx="1" cy="1" r="1" transform="translate(320 1660)"/><circle class="a" cx="1" cy="1" r="1" transform="translate(338 1660)"/><circle class="a" cx="1" cy="1" r="1" transform="translate(356 1660)"/><circle class="a" cx="1" cy="1" r="1" transform="translate(260 1660)"/><circle class="a" cx="1" cy="1" r="1" transform="translate(296 1660)"/><circle class="a" cx="1" cy="1" r="1" transform="translate(326 1660)"/><circle class="a" cx="1" cy="1" r="1" transform="translate(344 1660)"/><circle class="a" cx="1" cy="1" r="1" transform="translate(362 1660)"/><circle class="a" cx="1" cy="1" r="1" transform="translate(230 1666)"/><circle class="a" cx="1" cy="1" r="1" transform="translate(266 1666)"/><circle class="a" cx="1" cy="1" r="1" transform="translate(236 1666)"/><circle class="a" cx="1" cy="1" r="1" transform="translate(272 1666)"/><circle class="a" cx="1" cy="1" r="1" transform="translate(302 1666)"/><circle class="a" cx="1" cy="1" r="1" transform="translate(242 1666)"/><circle class="a" cx="1" cy="1" r="1" transform="translate(278 1666)"/><circle class="a" cx="1" cy="1" r="1" transform="translate(308 1666)"/><circle class="a" cx="1" cy="1" r="1" transform="translate(248 1666)"/><circle class="a" cx="1" cy="1" r="1" transform="translate(284 1666)"/><circle class="a" cx="1" cy="1" r="1" transform="translate(314 1666)"/><circle class="a" cx="1" cy="1" r="1" transform="translate(332 1666)"/><circle class="a" cx="1" cy="1" r="1" transform="translate(350 1666)"/><circle class="a" cx="1" cy="1" r="1" transform="translate(254 1666)"/><circle class="a" cx="1" cy="1" r="1" transform="translate(290 1666)"/><circle class="a" cx="1" cy="1" r="1" transform="translate(320 1666)"/><circle class="a" cx="1" cy="1" r="1" transform="translate(338 1666)"/><circle class="a" cx="1" cy="1" r="1" transform="translate(356 1666)"/><circle class="a" cx="1" cy="1" r="1" transform="translate(260 1666)"/><circle class="a" cx="1" cy="1" r="1" transform="translate(296 1666)"/><circle class="a" cx="1" cy="1" r="1" transform="translate(326 1666)"/><circle class="a" cx="1" cy="1" r="1" transform="translate(344 1666)"/><circle class="a" cx="1" cy="1" r="1" transform="translate(362 1666)"/><circle class="a" cx="1" cy="1" r="1" transform="translate(230 1672)"/><circle class="a" cx="1" cy="1" r="1" transform="translate(266 1672)"/><circle class="a" cx="1" cy="1" r="1" transform="translate(236 1672)"/><circle class="a" cx="1" cy="1" r="1" transform="translate(272 1672)"/><circle class="a" cx="1" cy="1" r="1" transform="translate(302 1672)"/><circle class="a" cx="1" cy="1" r="1" transform="translate(242 1672)"/><circle class="a" cx="1" cy="1" r="1" transform="translate(278 1672)"/><circle class="a" cx="1" cy="1" r="1" transform="translate(308 1672)"/><circle class="a" cx="1" cy="1" r="1" transform="translate(248 1672)"/><circle class="a" cx="1" cy="1" r="1" transform="translate(284 1672)"/><circle class="a" cx="1" cy="1" r="1" transform="translate(314 1672)"/><circle class="a" cx="1" cy="1" r="1" transform="translate(332 1672)"/><circle class="a" cx="1" cy="1" r="1" transform="translate(350 1672)"/><circle class="a" cx="1" cy="1" r="1" transform="translate(254 1672)"/><circle class="a" cx="1" cy="1" r="1" transform="translate(290 1672)"/><circle class="a" cx="1" cy="1" r="1" transform="translate(320 1672)"/><circle class="a" cx="1" cy="1" r="1" transform="translate(338 1672)"/><circle class="a" cx="1" cy="1" r="1" transform="translate(356 1672)"/><circle class="a" cx="1" cy="1" r="1" transform="translate(260 1672)"/><circle class="a" cx="1" cy="1" r="1" transform="translate(296 1672)"/><circle class="a" cx="1" cy="1" r="1" transform="translate(326 1672)"/><circle class="a" cx="1" cy="1" r="1" transform="translate(344 1672)"/><circle class="a" cx="1" cy="1" r="1" transform="translate(362 1672)"/><circle class="a" cx="1" cy="1" r="1" transform="translate(230 1678)"/><circle class="a" cx="1" cy="1" r="1" transform="translate(266 1678)"/><circle class="a" cx="1" cy="1" r="1" transform="translate(236 1678)"/><circle class="a" cx="1" cy="1" r="1" transform="translate(272 1678)"/><circle class="a" cx="1" cy="1" r="1" transform="translate(302 1678)"/><circle class="a" cx="1" cy="1" r="1" transform="translate(242 1678)"/><circle class="a" cx="1" cy="1" r="1" transform="translate(278 1678)"/><circle class="a" cx="1" cy="1" r="1" transform="translate(308 1678)"/><circle class="a" cx="1" cy="1" r="1" transform="translate(248 1678)"/><circle class="a" cx="1" cy="1" r="1" transform="translate(284 1678)"/><circle class="a" cx="1" cy="1" r="1" transform="translate(314 1678)"/><circle class="a" cx="1" cy="1" r="1" transform="translate(332 1678)"/><circle class="a" cx="1" cy="1" r="1" transform="translate(350 1678)"/><circle class="a" cx="1" cy="1" r="1" transform="translate(254 1678)"/><circle class="a" cx="1" cy="1" r="1" transform="translate(290 1678)"/><circle class="a" cx="1" cy="1" r="1" transform="translate(320 1678)"/><circle class="a" cx="1" cy="1" r="1" transform="translate(338 1678)"/><circle class="a" cx="1" cy="1" r="1" transform="translate(356 1678)"/><circle class="a" cx="1" cy="1" r="1" transform="translate(260 1678)"/><circle class="a" cx="1" cy="1" r="1" transform="translate(296 1678)"/><circle class="a" cx="1" cy="1" r="1" transform="translate(326 1678)"/><circle class="a" cx="1" cy="1" r="1" transform="translate(344 1678)"/><circle class="a" cx="1" cy="1" r="1" transform="translate(362 1678)"/><circle class="a" cx="1" cy="1" r="1" transform="translate(368 1660)"/><circle class="a" cx="1" cy="1" r="1" transform="translate(368 1666)"/><circle class="a" cx="1" cy="1" r="1" transform="translate(368 1672)"/><circle class="a" cx="1" cy="1" r="1" transform="translate(368 1678)"/><circle class="a" cx="1" cy="1" r="1" transform="translate(374 1660)"/><circle class="a" cx="1" cy="1" r="1" transform="translate(374 1666)"/><circle class="a" cx="1" cy="1" r="1" transform="translate(374 1672)"/><circle class="a" cx="1" cy="1" r="1" transform="translate(374 1678)"/><circle class="a" cx="1" cy="1" r="1" transform="translate(380 1660)"/><circle class="a" cx="1" cy="1" r="1" transform="translate(380 1666)"/><circle class="a" cx="1" cy="1" r="1" transform="translate(380 1672)"/><circle class="a" cx="1" cy="1" r="1" transform="translate(380 1678)"/><circle class="a" cx="1" cy="1" r="1" transform="translate(386 1660)"/><circle class="a" cx="1" cy="1" r="1" transform="translate(422 1660)"/><circle class="a" cx="1" cy="1" r="1" transform="translate(392 1660)"/><circle class="a" cx="1" cy="1" r="1" transform="translate(428 1660)"/><circle class="a" cx="1" cy="1" r="1" transform="translate(458 1660)"/><circle class="a" cx="1" cy="1" r="1" transform="translate(398 1660)"/><circle class="a" cx="1" cy="1" r="1" transform="translate(434 1660)"/><circle class="a" cx="1" cy="1" r="1" transform="translate(464 1660)"/><circle class="a" cx="1" cy="1" r="1" transform="translate(404 1660)"/><circle class="a" cx="1" cy="1" r="1" transform="translate(440 1660)"/><circle class="a" cx="1" cy="1" r="1" transform="translate(470 1660)"/><circle class="a" cx="1" cy="1" r="1" transform="translate(488 1660)"/><circle class="a" cx="1" cy="1" r="1" transform="translate(410 1660)"/><circle class="a" cx="1" cy="1" r="1" transform="translate(446 1660)"/><circle class="a" cx="1" cy="1" r="1" transform="translate(476 1660)"/><circle class="a" cx="1" cy="1" r="1" transform="translate(416 1660)"/><circle class="a" cx="1" cy="1" r="1" transform="translate(452 1660)"/><circle class="a" cx="1" cy="1" r="1" transform="translate(482 1660)"/><circle class="a" cx="1" cy="1" r="1" transform="translate(386 1666)"/><circle class="a" cx="1" cy="1" r="1" transform="translate(422 1666)"/><circle class="a" cx="1" cy="1" r="1" transform="translate(392 1666)"/><circle class="a" cx="1" cy="1" r="1" transform="translate(428 1666)"/><circle class="a" cx="1" cy="1" r="1" transform="translate(458 1666)"/><circle class="a" cx="1" cy="1" r="1" transform="translate(398 1666)"/><circle class="a" cx="1" cy="1" r="1" transform="translate(434 1666)"/><circle class="a" cx="1" cy="1" r="1" transform="translate(464 1666)"/><circle class="a" cx="1" cy="1" r="1" transform="translate(404 1666)"/><circle class="a" cx="1" cy="1" r="1" transform="translate(440 1666)"/><circle class="a" cx="1" cy="1" r="1" transform="translate(470 1666)"/><circle class="a" cx="1" cy="1" r="1" transform="translate(488 1666)"/><circle class="a" cx="1" cy="1" r="1" transform="translate(410 1666)"/><circle class="a" cx="1" cy="1" r="1" transform="translate(446 1666)"/><circle class="a" cx="1" cy="1" r="1" transform="translate(476 1666)"/><circle class="a" cx="1" cy="1" r="1" transform="translate(416 1666)"/><circle class="a" cx="1" cy="1" r="1" transform="translate(452 1666)"/><circle class="a" cx="1" cy="1" r="1" transform="translate(482 1666)"/><circle class="a" cx="1" cy="1" r="1" transform="translate(386 1672)"/><circle class="a" cx="1" cy="1" r="1" transform="translate(422 1672)"/><circle class="a" cx="1" cy="1" r="1" transform="translate(392 1672)"/><circle class="a" cx="1" cy="1" r="1" transform="translate(428 1672)"/><circle class="a" cx="1" cy="1" r="1" transform="translate(458 1672)"/><circle class="a" cx="1" cy="1" r="1" transform="translate(398 1672)"/><circle class="a" cx="1" cy="1" r="1" transform="translate(434 1672)"/><circle class="a" cx="1" cy="1" r="1" transform="translate(464 1672)"/><circle class="a" cx="1" cy="1" r="1" transform="translate(404 1672)"/><circle class="a" cx="1" cy="1" r="1" transform="translate(440 1672)"/><circle class="a" cx="1" cy="1" r="1" transform="translate(470 1672)"/><circle class="a" cx="1" cy="1" r="1" transform="translate(488 1672)"/><circle class="a" cx="1" cy="1" r="1" transform="translate(410 1672)"/><circle class="a" cx="1" cy="1" r="1" transform="translate(446 1672)"/><circle class="a" cx="1" cy="1" r="1" transform="translate(476 1672)"/><circle class="a" cx="1" cy="1" r="1" transform="translate(416 1672)"/><circle class="a" cx="1" cy="1" r="1" transform="translate(452 1672)"/><circle class="a" cx="1" cy="1" r="1" transform="translate(482 1672)"/><circle class="a" cx="1" cy="1" r="1" transform="translate(386 1678)"/><circle class="a" cx="1" cy="1" r="1" transform="translate(422 1678)"/><circle class="a" cx="1" cy="1" r="1" transform="translate(392 1678)"/><circle class="a" cx="1" cy="1" r="1" transform="translate(428 1678)"/><circle class="a" cx="1" cy="1" r="1" transform="translate(458 1678)"/><circle class="a" cx="1" cy="1" r="1" transform="translate(398 1678)"/><circle class="a" cx="1" cy="1" r="1" transform="translate(434 1678)"/><circle class="a" cx="1" cy="1" r="1" transform="translate(464 1678)"/><circle class="a" cx="1" cy="1" r="1" transform="translate(404 1678)"/><circle class="a" cx="1" cy="1" r="1" transform="translate(440 1678)"/><circle class="a" cx="1" cy="1" r="1" transform="translate(470 1678)"/><circle class="a" cx="1" cy="1" r="1" transform="translate(488 1678)"/><circle class="a" cx="1" cy="1" r="1" transform="translate(410 1678)"/><circle class="a" cx="1" cy="1" r="1" transform="translate(446 1678)"/><circle class="a" cx="1" cy="1" r="1" transform="translate(476 1678)"/><circle class="a" cx="1" cy="1" r="1" transform="translate(416 1678)"/><circle class="a" cx="1" cy="1" r="1" transform="translate(452 1678)"/><circle class="a" cx="1" cy="1" r="1" transform="translate(482 1678)"/><circle class="a" cx="1" cy="1" r="1" transform="translate(494 1660)"/><circle class="a" cx="1" cy="1" r="1" transform="translate(494 1666)"/><circle class="a" cx="1" cy="1" r="1" transform="translate(494 1672)"/><circle class="a" cx="1" cy="1" r="1" transform="translate(494 1678)"/><circle class="a" cx="1" cy="1" r="1" transform="translate(500 1660)"/><circle class="a" cx="1" cy="1" r="1" transform="translate(500 1666)"/><circle class="a" cx="1" cy="1" r="1" transform="translate(500 1672)"/><circle class="a" cx="1" cy="1" r="1" transform="translate(500 1678)"/></g></svg>