<svg xmlns="http://www.w3.org/2000/svg" width="19.908" height="24.262" viewBox="0 0 19.908 24.262"><defs><style>.a{fill:#404040;}</style></defs><path class="a" d="M13.954,26.762a2.5,2.5,0,0,0,2.488-2.488H11.465A2.5,2.5,0,0,0,13.954,26.762ZM21.419,19.3V13.076c0-3.82-2.028-7.017-5.6-7.863V4.366a1.866,1.866,0,0,0-3.733,0v.846c-3.559.846-5.6,4.031-5.6,7.863V19.3L4,21.785V23.03H23.908V21.785Zm-2.488,1.244H8.977V13.076c0-3.086,1.879-5.6,4.977-5.6s4.977,2.513,4.977,5.6Z" transform="translate(-4 -2.5)"/></svg>