<svg xmlns="http://www.w3.org/2000/svg" width="19.098" height="19.098" viewBox="0 0 19.098 19.098"><defs><style>.a{fill:none;}.b{fill:#0da4de;}</style></defs><g transform="translate(0)"><rect class="a" width="19.098" height="19.098"/><path class="b" d="M150.063,9.764a3.581,3.581,0,1,1,3.581-3.581A3.566,3.566,0,0,1,150.063,9.764Zm4.774,0H154.2l-.239-.239a5.246,5.246,0,0,0,1.194-4.217A5.149,5.149,0,0,0,150.7,1.09a5.2,5.2,0,0,0-1.591,10.265,5.246,5.246,0,0,0,4.217-1.194l.239.239v.637l3.342,3.342a.844.844,0,0,0,1.194-1.194Z" transform="translate(-142.583 1.377)"/></g></svg>