<svg xmlns="http://www.w3.org/2000/svg" width="24" height="24" viewBox="0 0 24 24"><defs><style>.a,.b{fill:none;}.b{stroke:#0da4de;stroke-width:2px;}</style></defs><g transform="translate(-380 -1868)"><rect class="a" width="24" height="24" transform="translate(380 1868)"/><path class="b" d="M251.3,66.1a2,2,0,0,1-2.7,0l-.1-.1c-5.2-4.8-8.7-7.9-8.6-11.7a5.645,5.645,0,0,1,2.3-4.3,5.818,5.818,0,0,1,7.7,1.1,5.8,5.8,0,0,1,7.7-1.1,5.359,5.359,0,0,1,2.3,4.3c.1,3.9-3.3,7-8.6,11.8Z" transform="translate(142 1822)"/></g></svg>