<svg xmlns="http://www.w3.org/2000/svg" width="24" height="24" viewBox="0 0 24 24"><defs><style>.a{fill:none;}.b{fill:#999;}</style></defs><g transform="translate(-284 -1820)"><rect class="a" width="24" height="24" transform="translate(284 1820)"/><path class="b" d="M151.4,12a4.5,4.5,0,1,1,4.5-4.5A4.481,4.481,0,0,1,151.4,12Zm6,0h-.8l-.3-.3a6.593,6.593,0,0,0,1.5-5.3,6.471,6.471,0,0,0-5.6-5.3,6.53,6.53,0,0,0-2,12.9,6.593,6.593,0,0,0,5.3-1.5l.3.3v.8l4.2,4.2a1.061,1.061,0,0,0,1.5-1.5Z" transform="translate(142 1822)"/></g></svg>