<svg xmlns="http://www.w3.org/2000/svg" width="54.508" height="54.508" viewBox="0 0 54.508 54.508"><defs><style>.a{fill:none;}.b{fill:#999;}</style></defs><g transform="translate(-1052 -1820)"><rect class="a" width="54.508" height="54.508" transform="translate(1052 1820)"/><path class="b" d="M934.612,39.064A16.569,16.569,0,0,1,920.985,31.8c0-4.542,9.085-7.041,13.627-7.041s13.627,2.5,13.627,7.041A16.57,16.57,0,0,1,934.612,39.064Zm0-32.25a6.692,6.692,0,0,1,6.813,6.813,6.813,6.813,0,0,1-13.627,0A6.692,6.692,0,0,1,934.612,6.813Zm0-6.813a22.712,22.712,0,1,0,22.711,22.712A22.778,22.778,0,0,0,934.612,0Z" transform="translate(144.415 1824.542)"/></g></svg>