<svg xmlns="http://www.w3.org/2000/svg" width="24" height="24" viewBox="0 0 24 24"><defs><style>.a{fill:none;}.b{fill:#0da4de;}</style></defs><g transform="translate(-1004 -1820)"><rect class="a" width="24" height="24" transform="translate(1004 1820)"/><path class="b" d="M879.9,18h-12a1.075,1.075,0,0,1-1-1V7h14V17A1,1,0,0,1,879.9,18Zm-2-17V2h-8V1a1,1,0,0,0-2,0V2h-1a2.006,2.006,0,0,0-2,2V18a2.006,2.006,0,0,0,2,2h14a2.006,2.006,0,0,0,2-2V4a2.006,2.006,0,0,0-2-2h-1V1a1,1,0,0,0-2,0Zm0,10h-3a1.075,1.075,0,0,0-1,1v3a1.075,1.075,0,0,0,1,1h3a1.075,1.075,0,0,0,1-1V12A1,1,0,0,0,877.9,11Z" transform="translate(142 1822)"/></g></svg>