<svg xmlns="http://www.w3.org/2000/svg" width="28.285" height="28.285" viewBox="0 0 28.285 28.285"><defs><style>.a{fill:none;}.b{fill:#404040;}</style></defs><g transform="translate(-140 -1820)"><rect class="a" width="28.285" height="28.285" transform="translate(140 1820)"/><path class="b" d="M.9,5.179A1.181,1.181,0,0,0,2.079,6.357H20.935a1.179,1.179,0,1,0,0-2.357H2.079A1.181,1.181,0,0,0,.9,5.179ZM4.079,12.25H18.935a1.267,1.267,0,0,0,1.179-1.179,1.267,1.267,0,0,0-1.179-1.179H4.079A1.267,1.267,0,0,0,2.9,11.071,1.267,1.267,0,0,0,4.079,12.25Zm2,5.893H16.935a1.267,1.267,0,0,0,1.179-1.179,1.267,1.267,0,0,0-1.179-1.179H6.079A1.267,1.267,0,0,0,4.9,16.964,1.267,1.267,0,0,0,6.079,18.143Z" transform="translate(142.518 1823.071)"/></g></svg>