<svg xmlns="http://www.w3.org/2000/svg" width="58.056" height="60" viewBox="0 0 58.056 60"><defs><style>.a{fill:#109fda;}</style></defs><g transform="translate(-8.295)"><g transform="translate(8.295 28.828)"><path class="a" d="M27.716,261.361l-.036-.009a6.89,6.89,0,0,0,1.765-4.61v-5.2A5.553,5.553,0,0,0,23.9,246H16.781a1.172,1.172,0,0,0-1.172,1.172v9.571a6.89,6.89,0,0,0,1.765,4.61l-.036.009a9.977,9.977,0,0,0-9.043,9.92V276a1.172,1.172,0,0,0,1.172,1.172H35.587A1.172,1.172,0,0,0,36.759,276v-4.718A9.977,9.977,0,0,0,27.716,261.361Zm-5.189-.044a4.58,4.58,0,0,1-4.575-4.575v-2.1a4.462,4.462,0,0,0,2.146.547h7v1.549A4.58,4.58,0,0,1,22.527,261.317Zm2.043,2.344L22.527,265.7l-2.043-2.043Zm-6.617-15.317H23.9a3.207,3.207,0,0,1,3.2,3.2v1.3h-7a2.148,2.148,0,0,1-2.146-2.146Zm-7.314,26.484v-3.547a7.631,7.631,0,0,1,6.6-7.55L21.7,268.19a1.172,1.172,0,0,0,1.657,0l4.459-4.459a7.631,7.631,0,0,1,6.6,7.55v3.547Z" transform="translate(-8.295 -246)"/></g><g transform="translate(34.16 4.39)"><path class="a" d="M255.415,78.13a4.914,4.914,0,0,0,1.46-3.5V69.866a7.962,7.962,0,0,0-3.421-6.537,1.174,1.174,0,0,0,.029-.258V60.286a5.57,5.57,0,0,0,4.866-5.519V43.024a5.568,5.568,0,0,0-5.562-5.562H234.568a5.568,5.568,0,0,0-5.562,5.562V54.767a5.568,5.568,0,0,0,5.562,5.562h13.343l1.6,1.6c-.2-.015-.4-.025-.6-.025a7.975,7.975,0,0,0-7.967,7.966v4.765a4.914,4.914,0,0,0,1.461,3.5,9.945,9.945,0,0,0-5.782,9.021V91.9a1.172,1.172,0,0,0,1.172,1.172h22.233A1.172,1.172,0,0,0,261.2,91.9V87.151A9.945,9.945,0,0,0,255.415,78.13Zm-6.19-19.8a1.172,1.172,0,0,0-.829-.343H234.568a3.222,3.222,0,0,1-3.218-3.218V43.024a3.222,3.222,0,0,1,3.218-3.218h18.219a3.222,3.222,0,0,1,3.218,3.218v.063h-7.434a1.172,1.172,0,0,0,0,2.344h7.434v9.337a3.222,3.222,0,0,1-3.218,3.218h-.476a1.172,1.172,0,0,0-1.172,1.172v1.085Zm-5.939,11.538a5.623,5.623,0,0,1,11.245,0v4.765a2.589,2.589,0,0,1-2.586,2.586h-6.073a2.589,2.589,0,0,1-2.586-2.586Zm15.567,20.862H238.965V87.151a7.6,7.6,0,0,1,7.59-7.59h4.709a7.6,7.6,0,0,1,7.59,7.59Z" transform="translate(-229.006 -37.462)"/></g><g transform="translate(13.087)"><path class="a" d="M68.381,0H54.751a5.568,5.568,0,0,0-5.562,5.562V17.305a5.57,5.57,0,0,0,4.866,5.519V25.61a1.172,1.172,0,0,0,2,.829l3.571-3.571h6.09a1.172,1.172,0,0,0,0-2.344H59.141a1.172,1.172,0,0,0-.829.343L56.4,22.781V21.7a1.172,1.172,0,0,0-1.172-1.172h-.476a3.222,3.222,0,0,1-3.218-3.218V5.562a3.222,3.222,0,0,1,3.218-3.218h13.63a1.172,1.172,0,0,0,0-2.344Z" transform="translate(-49.189)"/></g><g transform="translate(35.696)"><path class="a" d="M244.116.343a1.173,1.173,0,0,0-2,.829,1.172,1.172,0,1,0,2-.829Z" transform="translate(-242.115 0)"/></g><g transform="translate(47.659 10.015)"><path class="a" d="M346.2,85.8a1.171,1.171,0,1,0,.344.829A1.18,1.18,0,0,0,346.2,85.8Z" transform="translate(-344.204 -85.46)"/></g></g></svg>