<svg xmlns="http://www.w3.org/2000/svg" xmlns:xlink="http://www.w3.org/1999/xlink" width="50" height="50" viewBox="0 0 50 50"><defs><style>.a{fill:#fff;}.b{clip-path:url(#a);}.c{fill:none;}.d{fill:#0da4de;}</style><clipPath id="a"><circle class="a" cx="25" cy="25" r="25" transform="translate(1031 333)"/></clipPath></defs><g class="b" transform="translate(-1031 -333)"><g transform="translate(1043.106 345.106)"><path class="c" d="M0,0H25.787V25.787H0Z"/><path class="d" d="M18.117,7h-4.3V9.149h4.3a3.223,3.223,0,0,1,0,6.447h-4.3v2.149h4.3A5.372,5.372,0,0,0,18.117,7ZM11.67,15.6h-4.3a3.223,3.223,0,0,1,0-6.447h4.3V7h-4.3a5.372,5.372,0,0,0,0,10.745h4.3ZM8.447,11.3h8.6v2.149h-8.6Z" transform="translate(0.149 0.521)"/></g></g></svg>