<svg xmlns="http://www.w3.org/2000/svg" width="13.118" height="21.902" viewBox="0 0 13.118 21.902"><defs><style>.a{fill:#404040;}</style></defs><g transform="translate(0)"><g transform="translate(0 0)"><path class="a" d="M5.129,13.874a5.549,5.549,0,0,1,.386-2.2,2.862,2.862,0,0,1,.958-1.244q.572-.386,1.244-.771l1.244-.684a2.364,2.364,0,0,0,1-1.033A3.6,3.6,0,0,0,10.3,6.222a3.135,3.135,0,0,0-1.07-2.488A3.87,3.87,0,0,0,6.56,2.775,3.621,3.621,0,0,0,3.847,3.858a3.509,3.509,0,0,0-1,2.688H0A5.96,5.96,0,0,1,1.782,1.892,6.47,6.47,0,0,1,6.56,0,6.532,6.532,0,0,1,11.2,1.78a5.811,5.811,0,0,1,1.9,4.442,5.96,5.96,0,0,1-.523,2.65,4.069,4.069,0,0,1-1.244,1.593,14.072,14.072,0,0,1-1.481.9,4.89,4.89,0,0,0-1.244.933,1.891,1.891,0,0,0-.523,1.369v1.829H5.129ZM5.3,21.339a1.941,1.941,0,1,1,2.34.3,1.941,1.941,0,0,1-2.34-.3Z" transform="translate(0.01 0.003)"/></g></g></svg>