<svg xmlns="http://www.w3.org/2000/svg" width="26" height="25.303" viewBox="0 0 26 25.303"><defs><style>.a{fill:#0da4de;}</style></defs><path class="a" d="M36.063,12.165c-1.915-1.915-10.135,1.882-15.153,6.173-2.41-.957-5.513-.165-7.858,2.08h0a7.8,7.8,0,0,0-1.584,1.949.99.99,0,0,0,1.353,1.353,5.252,5.252,0,0,1,3.731-.66,14,14,0,0,0-1.981,3.7.991.991,0,0,0,.132.892,4.111,4.111,0,0,0-.593.462c-1.42,1.42-3.1,6.569-3.4,7.559a.991.991,0,0,0,.957,1.288h.264c1.024-.3,6.207-1.782,7.693-3.136h.032a4.917,4.917,0,0,0,.562-.694l.3.066h.3a14.539,14.539,0,0,0,3.83-1.882,5.112,5.112,0,0,1-.726,3.928h0a.99.99,0,0,0,1.353,1.353,9.417,9.417,0,0,0,1.915-1.452c2.377-2.311,3.268-5.513,2.277-8.023,3.533-3.928,7.165-9.938,7.2-13.239a2.311,2.311,0,0,0-.593-1.716Zm-17.827,20.2a20.882,20.882,0,0,1-5.051,2.146c.726-2.014,1.684-4.325,2.311-4.952a2.217,2.217,0,0,1,.595-.428L18.7,31.742a2.831,2.831,0,0,1-.462.627Zm10.7-9.177a3.038,3.038,0,1,1,0-4.292A3.038,3.038,0,0,1,28.932,23.192Z" transform="translate(-10.663 -11.656)"/></svg>