<svg xmlns="http://www.w3.org/2000/svg" width="26.419" height="27.326" viewBox="0 0 26.419 27.326"><defs><style>.a{fill:#0da4de;}</style></defs><path class="a" d="M8.424,26.609H27.6a13.589,13.589,0,0,1-9.586,3.916A13.349,13.349,0,0,1,8.424,26.609ZM27.6,7.144a13.655,13.655,0,0,0-19.172-.03H27.6Zm-2.28,8.329a1.4,1.4,0,1,0,1.4,1.4A1.442,1.442,0,0,0,25.316,15.473Zm-14.612,0a1.4,1.4,0,1,0,1.4,1.4A1.4,1.4,0,0,0,10.7,15.473ZM31.22,11V22.78a2.283,2.283,0,0,1-2.28,2.28H7.08A2.283,2.283,0,0,1,4.8,22.78V11a2.283,2.283,0,0,1,2.28-2.28H28.911A2.253,2.253,0,0,1,31.219,11Zm-1.958,2.456a1.9,1.9,0,0,1-.584.058,2.3,2.3,0,0,1-2.308-2.308,3.3,3.3,0,0,1,.058-.555H9.447a2.178,2.178,0,0,1,.03.438A2.314,2.314,0,0,1,7.168,13.4a1.9,1.9,0,0,1-.409-.03v7.015a1.9,1.9,0,0,1,.409-.03,2.3,2.3,0,0,1,2.308,2.308,2.179,2.179,0,0,1-.03.438H26.4c0-.088-.03-.176-.03-.292A2.314,2.314,0,0,1,28.675,20.5a4.055,4.055,0,0,1,.584.058ZM18.01,14.86a2.016,2.016,0,1,0,2.016,2.016A2.02,2.02,0,0,0,18.01,14.86Zm5.026,2.016A5.026,5.026,0,1,1,18.01,11.85a5.026,5.026,0,0,1,5.026,5.026Zm-1.666,0a3.361,3.361,0,1,0-3.361,3.361A3.38,3.38,0,0,0,21.371,16.876Z" transform="translate(-4.801 -3.199)"/></svg>