<svg xmlns="http://www.w3.org/2000/svg" width="26.001" height="25.998" viewBox="0 0 26.001 25.998"><defs><style>.a{fill:#0da4de;}</style></defs><g transform="translate(0 -0.008)"><path class="a" d="M94.887,39.6v-2.8a1.4,1.4,0,0,1,0,2.8Z" transform="translate(-70.216 -27.232)"/><path class="a" d="M45.273,36.809H57.195v2.8H45.273Z" transform="translate(-33.502 -27.233)"/><path class="a" d="M33.532,13.349v11.19a1.469,1.469,0,0,1-1.467,1.467H17.159a1.472,1.472,0,0,1-1.467-1.467V21.75H28.644a2.436,2.436,0,0,0,2.437-2.444V17.925a2.439,2.439,0,0,0-2.437-2.444H15.692V1.475A1.465,1.465,0,0,1,17.158.008H27.952V3.5A2.445,2.445,0,0,0,30.4,5.945h3.135V8.6H22.882a.477.477,0,0,0-.229.052l-3.677,1.89a.479.479,0,0,0-.267.431.49.49,0,0,0,.267.437l3.677,1.884a.484.484,0,0,0,.229.059H33.532Z" transform="translate(-11.612)"/><path class="a" d="M66.609,2.867l3.963,4.217h-2.5a1.465,1.465,0,0,1-1.467-1.467Z" transform="translate(-49.29 -2.116)"/><path class="a" d="M35.418,37.984v2.177l-2.125-1.089Z" transform="translate(-24.637 -28.102)"/><path class="a" d="M2.868,64.594V63.277h.841v2.255a.489.489,0,0,0,.977,0V63.277h.841v1.316a.489.489,0,1,0,.977,0V63.277h.847v2.255a.489.489,0,0,0,.977,0V63.277h.841v1.316a.489.489,0,1,0,.977,0V63.277h.841v2.255a.489.489,0,0,0,.977,0V63.277h.841v1.316a.489.489,0,1,0,.977,0V63.277h.841v2.255a.489.489,0,0,0,.977,0V63.277H17.03A1.468,1.468,0,0,1,18.5,64.744v1.381a1.468,1.468,0,0,1-1.467,1.467H1.467A1.464,1.464,0,0,1,0,66.125V64.744a1.465,1.465,0,0,1,1.467-1.467H1.89v1.316a.489.489,0,0,0,.978,0Z" transform="translate(0 -46.819)"/></g></svg>