<svg xmlns="http://www.w3.org/2000/svg" width="26.146" height="25.841" viewBox="0 0 26.146 25.841"><defs><style>.a{fill:#0da4de;}</style></defs><g transform="translate(-4.734 -3.332)"><path class="a" d="M39.348,14.547H45.5L42.425,9.625Z" transform="translate(-24.617 -4.476)"/><path class="a" d="M41.182,47.654l3.581-14.322H37.6Z" transform="translate(-23.375 -21.336)"/><path class="a" d="M61.286,3.332H53.929l3.679,5.886Z" transform="translate(-34.987 0)"/><path class="a" d="M11.257,13.239,7.849,7.785,4.734,13.239Z" transform="translate(0 -3.167)"/><path class="a" d="M58.693,33.332,54.4,50.508,66.151,33.332Z" transform="translate(-35.321 -21.336)"/><path class="a" d="M24.275,9.218l3.679-5.886H20.6Z" transform="translate(-11.282 0)"/><path class="a" d="M72.68,13.239H79.2L76.088,7.785Z" transform="translate(-48.323 -3.167)"/><path class="a" d="M12.368,33.332H4.91L16.662,50.508Z" transform="translate(-0.125 -21.336)"/></g></svg>