<svg xmlns="http://www.w3.org/2000/svg" width="26" height="26" viewBox="0 0 26 26"><defs><style>.a{fill:#0da4de;}</style></defs><g transform="translate(-2.5 -2.5)"><path class="a" d="M37.758,48.163a.249.249,0,0,0-.274,0,4.6,4.6,0,0,1-5.474,0,.208.208,0,0,0-.274,0C29.9,49.34,29,51.639,29,54.267c0,1.833,11.495,1.833,11.495,0C40.495,51.639,39.591,49.341,37.758,48.163Z" transform="translate(-19.247 -33.128)"/><path class="a" d="M44.342,25.62A3.421,3.421,0,1,1,40.921,22.2a3.421,3.421,0,0,1,3.421,3.421" transform="translate(-25.421 -14.308)"/><path class="a" d="M15.5,2.5a13,13,0,1,0,13,13A13.012,13.012,0,0,0,15.5,2.5Zm0,24.139A11.139,11.139,0,1,1,26.639,15.5,11.131,11.131,0,0,1,15.5,26.639Z"/></g></svg>