<svg xmlns="http://www.w3.org/2000/svg" width="26" height="24.162" viewBox="0 0 26 24.162"><defs><style>.a{fill:#0da4de;}</style></defs><path class="a" d="M21.5,30.144H40.071c.929,0,.929,0,.929-.929V20.878c0-.929,0-.929-.929-.929H21.5c-.929,0-.929,0-.929.929v8.338C20.571,30.144,20.571,30.144,21.5,30.144Zm9.286-2.321a2.786,2.786,0,1,1,2.786-2.786A2.794,2.794,0,0,1,30.786,27.823ZM15,32.968V44.111h3.714V32.968Zm5.571,0V41.1a18.993,18.993,0,0,0,5.757,1.152c5.59,0,9.657-3.343,13.3-5.962.984-.705,1.114-1.634.705-2.247a1.783,1.783,0,0,0-2.1-.538l-4.457,1.412c0,1.486-1.819,2.6-2.841,2.6H24.788c.112-.557.891-1.486,2.971-1.486h2.99A1.518,1.518,0,0,0,32.4,34.509a1.542,1.542,0,0,0-1.653-1.541Z" transform="translate(-15 -19.949)"/></svg>