<svg xmlns="http://www.w3.org/2000/svg" width="26" height="25.843" viewBox="0 0 26 25.843"><defs><style>.a{fill:#0da4de;}</style></defs><path class="a" d="M31.407,33.971c-1.147-.612-.535-1.759,0-2.294a12.215,12.215,0,0,0,1.53-3.058,2.738,2.738,0,0,0,1.682-2.294c.612-1.989-.918-2.294-.918-2.294s1.223-3.288.229-5.811c-1.3-3.288-6.577-4.512-7.495-1.452-6.27-1.378-4.971,7.262-4.971,7.262s-1.53.305-.918,2.294a2.74,2.74,0,0,0,1.682,2.294,12.215,12.215,0,0,0,1.53,3.058c.535.535,1.147,1.682,0,2.294-2.294,1.223-9.177,1.53-9.177,6.882h26C40.583,35.5,33.7,35.194,31.407,33.971Z" transform="translate(-14.582 -15.009)"/></svg>