<svg xmlns="http://www.w3.org/2000/svg" width="26.128" height="29.361" viewBox="0 0 26.128 29.361"><defs><style>.a{fill:#0da4de;}</style></defs><g transform="translate(-10.481 -5.594)"><path class="a" d="M43.389,67.3H28.7l.563,8.961H42.827Zm-7.343,5.945A1.49,1.49,0,1,1,37.8,71.781,1.63,1.63,0,0,1,36.046,73.246Z" transform="translate(-12.198 -41.307)"/><path class="a" d="M32.738,20.748a2.13,2.13,0,0,0-2.255-1.523l-2.711.021v-1a6.934,6.934,0,0,0,3.01-5.718,6.926,6.926,0,0,0-6.841-6.932A6.6,6.6,0,0,0,17.323,10.2l-.031.087-.021.089a7.9,7.9,0,0,0-.24,1.832,7.3,7.3,0,0,0,3.094,6.143v.932l-3.413.062a2.324,2.324,0,0,0-2.358,1.4l-3.679,9.147a2.687,2.687,0,0,0,1.485,3.485,3.787,3.787,0,0,0,3.061-.3l-.513-8.185h.151l-.031-.479H22.5L21.842,20.7l2.308,1.233L26.159,20.7l-.411,3.71h7.121l-.559,8.908a4.049,4.049,0,0,0,2.622.056,2.684,2.684,0,0,0,1.485-3.485Zm-6.63-3.461v1.5l-2.015,1.233-2.305-1.233V17.376a5.494,5.494,0,0,1-3.094-5.147,6.39,6.39,0,0,1,.19-1.452l.05-.134c3.3,1.956,6.188-1.723,9.949.291a5.58,5.58,0,0,1,.2.981,5.993,5.993,0,0,1,.034.612,5.271,5.271,0,0,1-3.01,4.76Z" transform="translate(0 0)"/></g></svg>