<svg xmlns="http://www.w3.org/2000/svg" width="16" height="16" viewBox="0 0 16 16"><defs><style>.a{fill:#ccc;fill-rule:evenodd;}</style></defs><path class="a" d="M919.437-1404.937h-.726l-.253-.251a5.918,5.918,0,0,0,1.434-3.866,5.946,5.946,0,0,0-5.946-5.946,5.946,5.946,0,0,0-5.946,5.946,5.946,5.946,0,0,0,5.946,5.946,5.918,5.918,0,0,0,3.865-1.433l.252.251v.725l4.572,4.565,1.364-1.364-4.563-4.574Zm-5.491,0a4.116,4.116,0,0,1-4.117-4.116,4.116,4.116,0,0,1,4.117-4.116,4.117,4.117,0,0,1,4.117,4.116,4.116,4.116,0,0,1-4.117,4.116Z" transform="translate(-908 1415)"/></svg>