<svg xmlns="http://www.w3.org/2000/svg" width="47.344" height="60" viewBox="0 0 47.344 60"><defs><style>.a{fill:#109fda;}</style></defs><g transform="translate(-54)"><g transform="translate(85.287 3.372)"><path class="a" d="M322.952,29.094l-.026-.023a1.18,1.18,0,1,0,.026.023Z" transform="translate(-320.979 -28.775)"/></g><g transform="translate(54 0)"><path class="a" d="M97.828,19.937H93.141a3.5,3.5,0,0,0-1.172.2V14.3a14.3,14.3,0,0,0-1.9-7.134,1.172,1.172,0,0,0-2.03,1.171A11.947,11.947,0,0,1,89.625,14.3V25.156a3.676,3.676,0,0,1-3.672,3.672H69.391a3.676,3.676,0,0,1-3.672-3.672V14.3A11.96,11.96,0,0,1,82.388,3.31a1.172,1.172,0,0,0,.926-2.153A14.3,14.3,0,0,0,63.375,14.3v5.841a3.5,3.5,0,0,0-1.172-.2H57.516a3.516,3.516,0,0,0,0,7.031h1.172v1.641a5.868,5.868,0,0,0,4.82,5.765,4.461,4.461,0,0,0,4.32,3.375h6.343v9.594H70.758a5.868,5.868,0,0,0-5.768,4.838,3.984,3.984,0,1,0,2.385.07,3.521,3.521,0,0,1,3.384-2.564H76.5v2.52a3.984,3.984,0,1,0,2.344,0v-2.52h5.742a3.521,3.521,0,0,1,3.384,2.564,3.984,3.984,0,1,0,2.385-.07,5.868,5.868,0,0,0-5.768-4.838H81.2V37.749h6.313a4.46,4.46,0,0,0,4.32-3.375,5.868,5.868,0,0,0,4.82-5.765V26.968h1.172a3.516,3.516,0,0,0,0-7.031ZM67.711,56.016a1.641,1.641,0,1,1-1.641-1.641A1.642,1.642,0,0,1,67.711,56.016Zm21.563-1.641a1.641,1.641,0,1,1-1.641,1.641A1.642,1.642,0,0,1,89.273,54.375ZM57.516,24.624a1.172,1.172,0,0,1,0-2.344H62.2a1.172,1.172,0,0,1,0,2.344Zm6.056,7.361a3.521,3.521,0,0,1-2.541-3.377V26.968H62.2a3.5,3.5,0,0,0,1.371-.278A6.023,6.023,0,0,0,65.343,29.6,4.472,4.472,0,0,0,63.572,31.986Zm15.741,24.03a1.641,1.641,0,1,1-1.641-1.641A1.642,1.642,0,0,1,79.313,56.016Zm-.454-8.672H76.515V37.749h2.344Zm8.657-11.938H67.828a2.109,2.109,0,0,1,0-4.219H87.516a2.109,2.109,0,0,1,0,4.219Zm6.8-6.8a3.521,3.521,0,0,1-2.541,3.377A4.472,4.472,0,0,0,90,29.6,6.023,6.023,0,0,0,91.77,26.69a3.5,3.5,0,0,0,1.371.278h1.172Zm3.516-3.984H93.141a1.172,1.172,0,0,1,0-2.344h4.688a1.172,1.172,0,0,1,0,2.344Z" transform="translate(-54 0)"/></g><g transform="translate(73.609 9.5)"><path class="a" d="M229.445,84.847a4.073,4.073,0,0,0-3.768-3.768,4.031,4.031,0,0,0-3.058,1.083,4.077,4.077,0,0,0-1.291,2.971,1.172,1.172,0,1,0,2.344,0,1.719,1.719,0,1,1,2.1,1.678,1.968,1.968,0,0,0-1.55,1.929v2.111a1.172,1.172,0,0,0,2.344,0V89.024A4.041,4.041,0,0,0,229.445,84.847Z" transform="translate(-221.329 -81.07)"/></g><g transform="translate(76.5 22.281)"><path class="a" d="M248,190.473a1.171,1.171,0,1,0,.343.829A1.175,1.175,0,0,0,248,190.473Z" transform="translate(-246 -190.13)"/></g></g></svg>