<svg xmlns="http://www.w3.org/2000/svg" width="59.994" height="60" viewBox="0 0 59.994 60"><defs><style>.a{fill:#109fda;}</style></defs><g transform="translate(-0.024)"><g transform="translate(51.543 45.436)"><path class="a" d="M441.655,388.062a1.171,1.171,0,1,0,.343.828A1.181,1.181,0,0,0,441.655,388.062Z" transform="translate(-439.655 -387.719)"/></g><g transform="translate(0.024)"><path class="a" d="M59.036,51.271,56.568,48.8a1.172,1.172,0,0,0-1.657,1.657l2.468,2.468a1.01,1.01,0,0,1,0,1.429l-3,3a1.011,1.011,0,0,1-1.429,0L42.11,46.526l4.433-4.433,2.278,2.278a1.172,1.172,0,1,0,1.657-1.657l-3.107-3.106a1.172,1.172,0,0,0-1.657,0l-.514.514L41.96,36.88A23.23,23.23,0,1,0,36.9,41.942l3.242,3.242-.514.514a1.172,1.172,0,0,0,0,1.657L51.288,59.019a3.358,3.358,0,0,0,4.744,0l3-3a3.354,3.354,0,0,0,0-4.744ZM23.228,44.063A20.86,20.86,0,1,1,44.087,23.2,20.884,20.884,0,0,1,23.228,44.063Zm15.5-3.606a23.439,23.439,0,0,0,1.749-1.748l3.069,3.069L41.8,43.527Z" transform="translate(-0.024)"/></g><g transform="translate(22.056 5.866)"><path class="a" d="M189.263,50.057H189.2a1.172,1.172,0,0,0,0,2.344h.059a1.172,1.172,0,0,0,0-2.344Z" transform="translate(-188.029 -50.057)"/></g><g transform="translate(5.89 6.487)"><path class="a" d="M81.195,61.546a17.46,17.46,0,0,0-9-6.143,1.172,1.172,0,1,0-.644,2.253,14.987,14.987,0,0,1,6.576,24.9,1.167,1.167,0,0,0,.073-.405V79.634a7.653,7.653,0,0,0-6.4-7.54,5.369,5.369,0,0,0,1.024-3.158V61.894a1.172,1.172,0,0,0-1.172-1.172H66.409a4.4,4.4,0,0,0-4.391,4.391v3.823a5.369,5.369,0,0,0,1.024,3.158,7.653,7.653,0,0,0-6.4,7.54v2.519a1.165,1.165,0,0,0,.073.405,14.988,14.988,0,0,1,6.249-24.8,1.172,1.172,0,0,0-.7-2.238A17.484,17.484,0,0,0,53.526,61.7a17.338,17.338,0,1,0,27.669-.154ZM67.419,71.992a3.06,3.06,0,0,1-3.056-3.056v-.83h4.844a3.593,3.593,0,0,0,1.269-.231v1.061A3.06,3.06,0,0,1,67.419,71.992Zm1.861,2.344L67.419,76.2l-1.861-1.861Zm-4.918-9.223h0a2.05,2.05,0,0,1,2.047-2.047h4.066v1.427a1.271,1.271,0,0,1-1.269,1.269H64.362ZM58.981,79.634h0a5.306,5.306,0,0,1,3.557-5l4.052,4.052a1.172,1.172,0,0,0,1.657,0L72.3,74.631a5.306,5.306,0,0,1,3.557,5v1.347H58.981Zm8.438,7.434a14.932,14.932,0,0,1-9.96-3.8,1.171,1.171,0,0,0,.351.053H77.028a1.171,1.171,0,0,0,.351-.053A14.931,14.931,0,0,1,67.419,87.068Z" transform="translate(-50.081 -55.358)"/></g></g></svg>