<svg xmlns="http://www.w3.org/2000/svg" width="24" height="24" viewBox="0 0 24 24"><defs><style>.a{fill:none;}.b{fill:#0da4de;}</style></defs><g transform="translate(-1100 -1820)"><rect class="a" width="24" height="24" transform="translate(1100 1820)"/><path class="b" d="M975.9,16h-12V15c.2-.7,3.3-2,6-2s5.8,1.3,6,2Zm-6-5c-2.7,0-8,1.3-8,4v2a1.075,1.075,0,0,0,1,1h14a1.075,1.075,0,0,0,1-1V15C977.9,12.3,972.6,11,969.9,11Zm0-7a2,2,0,1,1-2,2A2.006,2.006,0,0,1,969.9,4Zm0,6a4,4,0,1,0-4-4A4.012,4.012,0,0,0,969.9,10Z" transform="translate(142 1822)"/></g></svg>