<svg xmlns="http://www.w3.org/2000/svg" width="55.313" height="60" viewBox="0 0 55.313 60"><defs><style>.a{fill:#109fda;}</style></defs><g transform="translate(-20)"><g transform="translate(20 13.828)"><path class="a" d="M70.391,118H63.535a1.172,1.172,0,0,0,0,2.344h6.855a2.581,2.581,0,0,1,2.578,2.578V136.3a2.781,2.781,0,0,1-2.778,2.778H68.984v-8.651a4.927,4.927,0,0,0-4.922-4.922H46.777v-3.574a1.172,1.172,0,0,0-2.344,0V125.5H24.922a2.578,2.578,0,0,1,0-5.156h7.755a1.172,1.172,0,0,0,0-2.344H24.922A4.927,4.927,0,0,0,20,122.922c0,.065,0,.13,0,.194,0,.032,0,.065,0,.1V159.25a4.927,4.927,0,0,0,4.922,4.922H70.391a4.927,4.927,0,0,0,4.922-4.922V122.922A4.928,4.928,0,0,0,70.391,118Zm-3.75,41.25a2.58,2.58,0,0,1-2.524,2.577H24.922a2.581,2.581,0,0,1-2.578-2.578V127.112a4.892,4.892,0,0,0,2.578.731H64.062a2.581,2.581,0,0,1,2.578,2.578v8.651H56.094a7.266,7.266,0,0,0,0,14.531H66.641Zm6.328,0a2.581,2.581,0,0,1-2.578,2.578H68.254a4.892,4.892,0,0,0,.731-2.577V153.6h.7a5.593,5.593,0,0,0,3.281-1.06Zm0-11.269a3.285,3.285,0,0,1-3.281,3.281H56.094a4.922,4.922,0,0,1,0-9.844h14.1a5.089,5.089,0,0,0,2.778-.822Z" transform="translate(-20 -118)"/></g><g transform="translate(48.361 7.637)"><path class="a" d="M267.521,65.168a5.506,5.506,0,1,0,5.506,5.506A5.512,5.512,0,0,0,267.521,65.168Zm0,8.668a3.162,3.162,0,1,1,3.162-3.162A3.166,3.166,0,0,1,267.521,73.836Z" transform="translate(-262.015 -65.168)"/></g><g transform="translate(36.994)"><path class="a" d="M170.521,0a5.506,5.506,0,1,0,5.506,5.506A5.512,5.512,0,0,0,170.521,0Zm0,8.668a3.162,3.162,0,1,1,3.162-3.162A3.166,3.166,0,0,1,170.521,8.668Z" transform="translate(-165.015)"/></g><g transform="translate(57.655 0.115)"><path class="a" d="M346.171,2.822h-.665V2.157a1.172,1.172,0,0,0-2.344,0v.665H342.5a1.172,1.172,0,1,0,0,2.344h.665v.665a1.172,1.172,0,1,0,2.344,0V5.166h.665a1.172,1.172,0,1,0,0-2.344Z" transform="translate(-341.326 -0.985)"/></g><g transform="translate(37.539 11.455)"><path class="a" d="M170.839,97.75a1.172,1.172,0,0,0-1.172,1.172v4.746a1.172,1.172,0,1,0,2.344,0V98.922A1.172,1.172,0,0,0,170.839,97.75Z" transform="translate(-169.667 -97.75)"/></g><g transform="translate(55.634 41.141)"><path class="a" d="M326.08,351.413a1.171,1.171,0,1,0,.343.828A1.184,1.184,0,0,0,326.08,351.413Z" transform="translate(-324.08 -351.07)"/></g><g transform="translate(26.602 30.469)"><path class="a" d="M77.506,260a1.172,1.172,0,0,0-1.172,1.172v9.648a1.172,1.172,0,0,0,2.344,0v-9.648A1.172,1.172,0,0,0,77.506,260Z" transform="translate(-76.334 -260)"/></g><g transform="translate(26.601 44.161)"><path class="a" d="M78.33,377.183a1.171,1.171,0,1,0,.343.829A1.179,1.179,0,0,0,78.33,377.183Z" transform="translate(-76.33 -376.84)"/></g></g></svg>